<?xml version="1.0" encoding="utf-8" standalone="yes"?>
<!DOCTYPE svg PUBLIC "-//W3C//DTD SVG 1.1//EN" "http://www.w3.org/Graphics/SVG/1.1/DTD/svg11.dtd">
<svg width="925" height="823" viewBox="0 0 925 823" style="fill:none;stroke:none;fill-rule:evenodd;clip-rule:evenodd;stroke-linecap:round;stroke-linejoin:round;stroke-miterlimit:1.5;" version="1.1" xmlns="http://www.w3.org/2000/svg" xmlns:xlink="http://www.w3.org/1999/xlink"><style id="fontImports"></style><g id="items" style="isolation: isolate"><g id="blend" style="mix-blend-mode: normal"><g id="g-root-ro_1ulk0k6faz9qe-fill" data-item-order="-33408" transform="translate(368.5, 239.5)"><g id="ro_1ulk0k6faz9qe-fill" stroke="none" fill="#3ca8d2"><g><path d="M 34 10L 178 10C 178 10 202 10 202 34L 202 160C 202 160 202 184 178 184L 34 184C 34 184 10 184 10 160L 10 34C 10 34 10 10 34 10"></path></g></g></g><g id="g-root-ro_1lw4vkmfknmyy-fill" data-item-order="-19440" transform="translate(68.5, 38.5)"><g id="ro_1lw4vkmfknmyy-fill" stroke="none" fill="#3ca8d2"><g><path d="M 22 10L 358 10C 358 10 370 10 370 22L 370 52C 370 52 370 64 358 64L 22 64C 22 64 10 64 10 52L 10 22C 10 22 10 10 22 10"></path></g></g></g><g id="g-root-ro_4o666ufl7a4k-fill" data-item-order="-18144" transform="translate(2.5, 338.5)"><g id="ro_4o666ufl7a4k-fill" stroke="none" fill="#3ca8d2"><g><path d="M 22 10L 334 10C 334 10 346 10 346 22L 346 52C 346 52 346 64 334 64L 22 64C 22 64 10 64 10 52L 10 22C 10 22 10 10 22 10"></path></g></g></g><g id="g-root-ro_v97ro6fkp34b-fill" data-item-order="-16200" transform="translate(512.5, 38.5)"><g id="ro_v97ro6fkp34b-fill" stroke="none" fill="#3ca8d2"><g><path d="M 22 10L 298 10C 298 10 310 10 310 22L 310 52C 310 52 310 64 298 64L 22 64C 22 64 10 64 10 52L 10 22C 10 22 10 10 22 10"></path></g></g></g><g id="g-root-ro_v7zyl2fasaha-fill" data-item-order="-16200" transform="translate(596.5, 338.5)"><g id="ro_v7zyl2fasaha-fill" stroke="none" fill="#3ca8d2"><g><path d="M 22 10L 298 10C 298 10 310 10 310 22L 310 52C 310 52 310 64 298 64L 22 64C 22 64 10 64 10 52L 10 22C 10 22 10 10 22 10"></path></g></g></g><g id="g-root-ro_zrj9aufkm7t3-fill" data-item-order="-14904" transform="translate(146.5, 488.5)"><g id="ro_zrj9aufkm7t3-fill" stroke="none" fill="#3ca8d2"><g><path d="M 22 10L 274 10C 274 10 286 10 286 22L 286 52C 286 52 286 64 274 64L 22 64C 22 64 10 64 10 52L 10 22C 10 22 10 10 22 10"></path></g></g></g><g id="g-root-ro_4pg6aefb232i-fill" data-item-order="-14904" transform="translate(596.5, 188.5)"><g id="ro_4pg6aefb232i-fill" stroke="none" fill="#3ca8d2"><g><path d="M 22 10L 274 10C 274 10 286 10 286 22L 286 52C 286 52 286 64 274 64L 22 64C 22 64 10 64 10 52L 10 22C 10 22 10 10 22 10"></path></g></g></g><g id="g-root-ro_hydqdyfl1o1z-fill" data-item-order="-13608" transform="translate(338.5, 638.5)"><g id="ro_hydqdyfl1o1z-fill" stroke="none" fill="#3ca8d2"><g><path d="M 22 10L 250 10C 250 10 262 10 262 22L 262 52C 262 52 262 64 250 64L 22 64C 22 64 10 64 10 52L 10 22C 10 22 10 10 22 10"></path></g></g></g><g id="g-root-ro_958mhifl5y4h-fill" data-item-order="-12960" transform="translate(98.5, 188.5)"><g id="ro_958mhifl5y4h-fill" stroke="none" fill="#3ca8d2"><g><path d="M 22 10L 238 10C 238 10 250 10 250 22L 250 52C 250 52 250 64 238 64L 22 64C 22 64 10 64 10 52L 10 22C 10 22 10 10 22 10"></path></g></g></g><g id="g-root-ro_1hbcpuefb7q4r-fill" data-item-order="-12312" transform="translate(512.5, 488.5)"><g id="ro_1hbcpuefb7q4r-fill" stroke="none" fill="#3ca8d2"><g><path d="M 22 10L 226 10C 226 10 238 10 238 22L 238 52C 238 52 238 64 226 64L 22 64C 22 64 10 64 10 52L 10 22C 10 22 10 10 22 10"></path></g></g></g><g id="g-root-cu_1cu94gmfkp1xo-fill" data-item-order="0" transform="translate(368.5, 92.5)"></g><g id="g-root-cu_18efmc6fkp2pz-fill" data-item-order="0" transform="translate(368.5, 92.5)"></g><g id="g-root-cu_1qf2r4mfknoxz-fill" data-item-order="0" transform="translate(537.8333129882812, 542.5)"></g><g id="g-root-cu_13ym47qfkp3ic-fill" data-item-order="0" transform="translate(535.576904296875, 92.5)"></g><g id="g-root-cu_zrj9aufknmrk-fill" data-item-order="0" transform="translate(621.5, 392.5)"></g><g id="g-root-cu_13ym47qfkp3i9-fill" data-item-order="0" transform="translate(537.5, 92.5)"></g><g id="g-root-tx_smartcon_v97ro6fl4h6p-fill" data-item-order="0" transform="translate(566.5, 104.5)"><g id="tx_smartcon_v97ro6fl4h6p-fill" stroke="none" fill="#666666"><g><text style="font: 20px Arial, Helvetica, sans-serif; white-space: pre;" font-size="20px" font-family="Arial, Helvetica, sans-serif"><tspan x="16.09" y="33" dominant-baseline="ideographic">Smart Contract Vulnerabilities</tspan></text></g></g></g><g id="g-root-tx_rapidexp_18k1syefl4irk-fill" data-item-order="0" transform="translate(194.5, 140.5)"><g id="tx_rapidexp_18k1syefl4irk-fill" stroke="none" fill="#666666"><g><text style="font: 20px Arial, Helvetica, sans-serif; white-space: pre;" font-size="20px" font-family="Arial, Helvetica, sans-serif"><tspan x="13.39" y="33" dominant-baseline="ideographic">Rapid Exploitation</tspan></text></g></g></g><g id="g-root-tx_privatek_mdkrfafl4hze-fill" data-item-order="0" transform="translate(560.5, 140.5)"><g id="tx_privatek_mdkrfafl4hze-fill" stroke="none" fill="#666666"><g><text style="font: 20px Arial, Helvetica, sans-serif; white-space: pre;" font-size="20px" font-family="Arial, Helvetica, sans-serif"><tspan x="17.48" y="33" dominant-baseline="ideographic">Private Key Theft</tspan></text></g></g></g><g id="g-root-tx_disclosu_1hfot7afl4h73-fill" data-item-order="0" transform="translate(122.5, 104.5)"><g id="tx_disclosu_1hfot7afl4h73-fill" stroke="none" fill="#666666"><g><text style="font: 20px Arial, Helvetica, sans-serif; white-space: pre;" font-size="20px" font-family="Arial, Helvetica, sans-serif"><tspan x="17.72" y="33" dominant-baseline="ideographic">Disclosure to Exploitation</tspan></text></g></g></g><g id="g-root-cu_1lpw4pifkp14y-fill" data-item-order="0" transform="translate(537.8333129882812, 542.5)"></g><g id="g-root-cu_me7bo6fknojr-fill" data-item-order="0" transform="translate(422.5, 413.5)"></g><g id="g-root-cu_18kod7afknojv-fill" data-item-order="0" transform="translate(338.5, 215.5)"></g><g id="g-root-cu_7qa52fknojn-fill" data-item-order="0" transform="translate(464.5, 413.5)"></g><g id="g-root-cu_145hc5yfknm6e-fill" data-item-order="0" transform="translate(560.5, 215.5)"></g><g id="g-root-cu_hz0amufknm6a-fill" data-item-order="0" transform="translate(488.5, 413.5)"></g><g id="g-root-tx_prcnexus_mbpc5yfl4iz1-fill" data-item-order="0" transform="translate(566.5, 554.5)"><g id="tx_prcnexus_mbpc5yfl4iz1-fill" stroke="none" fill="#666666"><g><text style="font: 20px Arial, Helvetica, sans-serif; white-space: pre;" font-size="20px" font-family="Arial, Helvetica, sans-serif"><tspan x="12.3" y="33" dominant-baseline="ideographic">PRC-nexus Actors</tspan></text></g></g></g><g id="g-root-tx_phishing_1lqiimufl4gzv-fill" data-item-order="0" transform="translate(50.5, 254.5)"><g id="tx_phishing_1lqiimufl4gzv-fill" stroke="none" fill="#666666"><g><text style="font: 20px Arial, Helvetica, sans-serif; white-space: pre;" font-size="20px" font-family="Arial, Helvetica, sans-serif"><tspan x="15.59" y="33" dominant-baseline="ideographic">Phishing and Deepfakes</tspan></text></g></g></g><g id="g-root-cu_1qd7bvafknp5a-fill" data-item-order="0" transform="translate(284.5, 242.5)"></g><g id="g-root-cu_1hi6spifknnk1-fill" data-item-order="0" transform="translate(284.5, 242.5)"></g><g id="g-root-tx_inadequa_1use9qufl4hsc-fill" data-item-order="0" transform="translate(392.5, 740.5)"><g id="tx_inadequa_1use9qufl4hsc-fill" stroke="none" fill="#666666"><g><text style="font: 20px Arial, Helvetica, sans-serif; white-space: pre;" font-size="20px" font-family="Arial, Helvetica, sans-serif"><tspan x="12.48" y="33" dominant-baseline="ideographic">Inadequate Monitoring</tspan></text></g></g></g><g id="g-root-tx_multifac_1q9ge6ufl4he2-fill" data-item-order="0" transform="translate(74.5, 440.5)"><g id="tx_multifac_1q9ge6ufl4he2-fill" stroke="none" fill="#666666"><g><text style="font: 20px Arial, Helvetica, sans-serif; white-space: pre;" font-size="20px" font-family="Arial, Helvetica, sans-serif"><tspan x="15.84" y="33" dominant-baseline="ideographic">Multifaceted Extortion</tspan></text></g></g></g><g id="g-root-cu_146qac6fknp52-fill" data-item-order="0" transform="translate(619.8333129882812, 242.5)"></g><g id="g-root-cu_18mjsgmfknocr-fill" data-item-order="0" transform="translate(621.5908813476562, 242.5)"></g><g id="g-root-tx_multiclo_v5gx5ifl4j60-fill" data-item-order="0" transform="translate(650.5, 440.5)"><g id="tx_multiclo_v5gx5ifl4j60-fill" stroke="none" fill="#666666"><g><text style="font: 20px Arial, Helvetica, sans-serif; white-space: pre;" font-size="20px" font-family="Arial, Helvetica, sans-serif"><tspan x="15.06" y="33" dominant-baseline="ideographic">Multi-cloud Architectures</tspan></text></g></g></g><g id="g-root-tx_cyberesp_dcxyhifl4jd1-fill" data-item-order="0" transform="translate(644.5, 254.5)"><g id="tx_cyberesp_dcxyhifl4jd1-fill" stroke="none" fill="#666666"><g><text style="font: 20px Arial, Helvetica, sans-serif; white-space: pre;" font-size="20px" font-family="Arial, Helvetica, sans-serif"><tspan x="17.28" y="33" dominant-baseline="ideographic">Cyber Espionage</tspan></text></g></g></g><g id="g-root-tx_codedeve_v47yzafl4gzw-fill" data-item-order="0" transform="translate(98.5, 290.5)"><g id="tx_codedeve_v47yzafl4gzw-fill" stroke="none" fill="#666666"><g><text style="font: 20px Arial, Helvetica, sans-serif; white-space: pre;" font-size="20px" font-family="Arial, Helvetica, sans-serif"><tspan x="14.39" y="33" dominant-baseline="ideographic">Code Development</tspan></text></g></g></g><g id="g-root-cu_4njs9ifknnr9-fill" data-item-order="0" transform="translate(428.5, 65.5)"></g><g id="g-root-tx_databrea_18i6dp2fl4jr8-fill" data-item-order="0" transform="translate(218.5, 590.5)"><g id="tx_databrea_18i6dp2fl4jr8-fill" stroke="none" fill="#666666"><g><text style="font: 20px Arial, Helvetica, sans-serif; white-space: pre;" font-size="20px" font-family="Arial, Helvetica, sans-serif"><tspan x="15.85" y="33" dominant-baseline="ideographic">Data Breaches</tspan></text></g></g></g><g id="g-root-tx_informat_23x7afl4hs6-fill" data-item-order="0" transform="translate(650.5, 290.5)"><g id="tx_informat_23x7afl4hs6-fill" stroke="none" fill="#666666"><g><text style="font: 20px Arial, Helvetica, sans-serif; white-space: pre;" font-size="20px" font-family="Arial, Helvetica, sans-serif"><tspan x="16.28" y="33" dominant-baseline="ideographic">Information Operations</tspan></text></g></g></g><g id="g-root-cu_4njs9ifknnrc-fill" data-item-order="0" transform="translate(488.5, 65.5)"></g><g id="g-root-tx_onpremis_1cw4gk6fl4jyn-fill" data-item-order="0" transform="translate(650.5, 404.5)"><g id="tx_onpremis_1cw4gk6fl4jyn-fill" stroke="none" fill="#666666"><g><text style="font: 20px Arial, Helvetica, sans-serif; white-space: pre;" font-size="20px" font-family="Arial, Helvetica, sans-serif"><tspan x="13.95" y="33" dominant-baseline="ideographic">On-premises Challenges</tspan></text></g></g></g><g id="g-root-tx_evadingd_1uqiuhifl4iry-fill" data-item-order="0" transform="translate(566.5, 590.5)"><g id="tx_evadingd_1uqiuhifl4iry-fill" stroke="none" fill="#666666"><g><text style="font: 20px Arial, Helvetica, sans-serif; white-space: pre;" font-size="20px" font-family="Arial, Helvetica, sans-serif"><tspan x="12.84" y="33" dominant-baseline="ideographic">Evading Detection</tspan></text></g></g></g><g id="g-root-cu_qns2xifkp1xi-fill" data-item-order="0" transform="translate(362.5, 692.5)"></g><g id="g-root-cu_qu0tsmfknnrg-fill" data-item-order="0" transform="translate(338.5, 355.5)"></g><g id="g-root-tx_misconfi_92491yfl4jkb-fill" data-item-order="0" transform="translate(386.5, 704.5)"><g id="tx_misconfi_92491yfl4jkb-fill" stroke="none" fill="#666666"><g><text style="font: 20px Arial, Helvetica, sans-serif; white-space: pre;" font-size="20px" font-family="Arial, Helvetica, sans-serif"><tspan x="16.19" y="33" dominant-baseline="ideographic">Misconfigurations</tspan></text></g></g></g><g id="g-root-tx_credenti_1cxzvtifl4iyz-fill" data-item-order="0" transform="translate(206.5, 554.5)"><g id="tx_credenti_1cxzvtifl4iyz-fill" stroke="none" fill="#666666"><g><text style="font: 20px Arial, Helvetica, sans-serif; white-space: pre;" font-size="20px" font-family="Arial, Helvetica, sans-serif"><tspan x="17.03" y="33" dominant-baseline="ideographic">Credential Theft</tspan></text></g></g></g><g id="g-root-cu_4pf7iufknnk2-fill" data-item-order="0" transform="translate(368.5, 542.5)"></g><g id="g-root-cu_zpnu1ifknmyp-fill" data-item-order="0" transform="translate(560.5, 355.5)"></g><g id="g-root-cu_1uuw992fkno5p-fill" data-item-order="0" transform="translate(368.5, 542.5)"></g><g id="g-root-tx_datathef_4j6dhyfl4j61-fill" data-item-order="0" transform="translate(170.5, 404.5)"><g id="tx_datathef_4j6dhyfl4j61-fill" stroke="none" fill="#666666"><g><text style="font: 20px Arial, Helvetica, sans-serif; white-space: pre;" font-size="20px" font-family="Arial, Helvetica, sans-serif"><tspan x="17.48" y="33" dominant-baseline="ideographic">Data Theft</tspan></text></g></g></g><g id="g-root-cu_mg2qxifknocl-fill" data-item-order="0" transform="translate(284.5, 392.5)"></g><g id="g-root-cu_i098t2fknp4w-fill" data-item-order="0" transform="translate(284.5, 392.5)"></g><g id="g-root-cu_1hj9yfkp1xl-fill" data-item-order="0" transform="translate(355.8333435058594, 692.5)"></g><g id="g-root-cu_qvw91yfknnkb-fill" data-item-order="0" transform="translate(619.868408203125, 392.5)"></g><g id="g-root-tx_aidriven_18n66dyfl5wjz-fill" data-item-order="1000000000" transform="translate(122.5, 203.5)"><g id="tx_aidriven_18n66dyfl5wjz-fill" stroke="none" fill="#ffffff"><g><text style="font: 20px Arial, Helvetica, sans-serif; white-space: pre;" font-size="20px" font-family="Arial, Helvetica, sans-serif"><tspan x="12.97" y="33" dominant-baseline="ideographic">AI-driven Attacks</tspan></text></g></g></g><g id="g-root-view_qwimzafl5vrc-fill" data-item-order="1000000000" transform="translate(284.5, 200.5)"></g><g id="g-root-tx_web3andc_mcbt92fkp2ip-fill" data-item-order="1000000000" transform="translate(566.5, 53.5)"><g id="tx_web3andc_mcbt92fkp2ip-fill" stroke="none" fill="#ffffff"><g><text style="font: 20px Arial, Helvetica, sans-serif; white-space: pre;" font-size="20px" font-family="Arial, Helvetica, sans-serif"><tspan x="15.8" y="33" dominant-baseline="ideographic">Web3 and Crypto Heists</tspan></text></g></g></g><g id="g-root-glob_i0a7kmfb24nd-fill" data-item-order="1000000000" transform="translate(620.5, 200.5)"></g><g id="g-root-tx_geopolit_146r93qfb25fk-fill" data-item-order="1000000000" transform="translate(656.5, 203.5)"><g id="tx_geopolit_146r93qfb25fk-fill" stroke="none" fill="#ffffff"><g><text style="font: 20px Arial, Helvetica, sans-serif; white-space: pre;" font-size="20px" font-family="Arial, Helvetica, sans-serif"><tspan x="12.63" y="33" dominant-baseline="ideographic">Geopolitical Conflicts</tspan></text></g></g></g><g id="g-root-aler_959l92faxwxx-fill" data-item-order="1000000000" transform="translate(440.5, 275.5)"></g><g id="g-root-tx_cybersec_1d30n9yfaxvd0-fill" data-item-order="1000000000" transform="translate(392.5, 329.5)"><g id="tx_cybersec_1d30n9yfaxvd0-fill" stroke="none" fill="#ffffff"><g><text style="font: 20px Arial, Helvetica, sans-serif; white-space: pre;" font-size="20px" font-family="Arial, Helvetica, sans-serif"><tspan x="20.87" y="33" dominant-baseline="ideographic">Cybersecurity </tspan><tspan x="12.51" y="57" dominant-baseline="ideographic">Threats in 2025</tspan></text></g></g></g><g id="g-root-tx_ransomwa_zpnqvqfl7ci2-fill" data-item-order="1000000000" transform="translate(26.5, 353.5)"><g id="tx_ransomwa_zpnqvqfl7ci2-fill" stroke="none" fill="#ffffff"><g><text style="font: 20px Arial, Helvetica, sans-serif; white-space: pre;" font-size="20px" font-family="Arial, Helvetica, sans-serif"><tspan x="15.38" y="33" dominant-baseline="ideographic">Ransomware and Extortion</tspan></text></g></g></g><g id="g-root-3_hz07h2fl7bpf-fill" data-item-order="1000000000" transform="translate(284.5, 350.5)"></g><g id="g-root-lock_1heh046fasb9h-fill" data-item-order="1000000000" transform="translate(620.5, 350.5)"></g><g id="g-root-tx_compromi_8znhsmfasbgk-fill" data-item-order="1000000000" transform="translate(656.5, 353.5)"><g id="tx_compromi_8znhsmfasbgk-fill" stroke="none" fill="#ffffff"><g><text style="font: 20px Arial, Helvetica, sans-serif; white-space: pre;" font-size="20px" font-family="Arial, Helvetica, sans-serif"><tspan x="12.95" y="33" dominant-baseline="ideographic">Compromised Identities</tspan></text></g></g></g><g id="g-root-tx_infostea_93dadyfkm8st-fill" data-item-order="1000000000" transform="translate(176.5, 503.5)"><g id="tx_infostea_93dadyfkm8st-fill" stroke="none" fill="#ffffff"><g><text style="font: 20px Arial, Helvetica, sans-serif; white-space: pre;" font-size="20px" font-family="Arial, Helvetica, sans-serif"><tspan x="12.73" y="33" dominant-baseline="ideographic">Infostealer Malware</tspan></text></g></g></g><g id="g-root-warn_1hi6spifkm8lq-fill" data-item-order="1000000000" transform="translate(362.5, 500.5)"></g><g id="g-root-lapt_1lvibbqfkp34a-fill" data-item-order="1000000000" transform="translate(530.5, 50.5)"></g><g id="g-root-bug_8wj7iufb7qbu-fill" data-item-order="1000000000" transform="translate(530.5, 500.5)"></g><g id="g-root-tx_customma_v3091yfb7r41-fill" data-item-order="1000000000" transform="translate(566.5, 503.5)"><g id="tx_customma_v3091yfb7r41-fill" stroke="none" fill="#ffffff"><g><text style="font: 20px Arial, Helvetica, sans-serif; white-space: pre;" font-size="20px" font-family="Arial, Helvetica, sans-serif"><tspan x="12.98" y="33" dominant-baseline="ideographic">Custom Malware</tspan></text></g></g></g><g id="g-root-tx_exploita_qs5ejafknoqw-fill" data-item-order="1000000000" transform="translate(98.5, 53.5)"><g id="tx_exploita_qs5ejafknoqw-fill" stroke="none" fill="#ffffff"><g><text style="font: 20px Arial, Helvetica, sans-serif; white-space: pre;" font-size="20px" font-family="Arial, Helvetica, sans-serif"><tspan x="14.52" y="33" dominant-baseline="ideographic">Exploitation of Vulnerabilities</tspan></text></g></g></g><g id="g-root-comp_5uuvqfknoqx-fill" data-item-order="1000000000" transform="translate(368.5, 50.5)"></g><g id="g-root-plur_v97ro6fl1pmu-fill" data-item-order="1000000000" transform="translate(350.5, 650.5)"></g><g id="g-root-tx_cloudspe_18koa1ifl1o1x-fill" data-item-order="1000000000" transform="translate(386.5, 653.5)"><g id="tx_cloudspe_18koa1ifl1o1x-fill" stroke="none" fill="#ffffff"><g><text style="font: 20px Arial, Helvetica, sans-serif; white-space: pre;" font-size="20px" font-family="Arial, Helvetica, sans-serif"><tspan x="15.97" y="33" dominant-baseline="ideographic">Cloud-specific Risks</tspan></text></g></g></g><g id="g-root-ro_1ulk0k6faz9qe-stroke" data-item-order="-33408" transform="translate(368.5, 239.5)"><g id="ro_1ulk0k6faz9qe-stroke" fill="none" stroke-linecap="butt" stroke-linejoin="miter" stroke-miterlimit="4" stroke="#ffffff" stroke-width="1"><g><path d="M 34 10L 178 10C 178 10 202 10 202 34L 202 160C 202 160 202 184 178 184L 34 184C 34 184 10 184 10 160L 10 34C 10 34 10 10 34 10"></path></g></g></g><g id="g-root-ro_1lw4vkmfknmyy-stroke" data-item-order="-19440" transform="translate(68.5, 38.5)"><g id="ro_1lw4vkmfknmyy-stroke" fill="none" stroke-linecap="butt" stroke-linejoin="miter" stroke-miterlimit="4" stroke="#ffffff" stroke-width="1"><g><path d="M 22 10L 358 10C 358 10 370 10 370 22L 370 52C 370 52 370 64 358 64L 22 64C 22 64 10 64 10 52L 10 22C 10 22 10 10 22 10"></path></g></g></g><g id="g-root-ro_4o666ufl7a4k-stroke" data-item-order="-18144" transform="translate(2.5, 338.5)"><g id="ro_4o666ufl7a4k-stroke" fill="none" stroke-linecap="butt" stroke-linejoin="miter" stroke-miterlimit="4" stroke="#ffffff" stroke-width="1"><g><path d="M 22 10L 334 10C 334 10 346 10 346 22L 346 52C 346 52 346 64 334 64L 22 64C 22 64 10 64 10 52L 10 22C 10 22 10 10 22 10"></path></g></g></g><g id="g-root-ro_v97ro6fkp34b-stroke" data-item-order="-16200" transform="translate(512.5, 38.5)"><g id="ro_v97ro6fkp34b-stroke" fill="none" stroke-linecap="butt" stroke-linejoin="miter" stroke-miterlimit="4" stroke="#ffffff" stroke-width="1"><g><path d="M 22 10L 298 10C 298 10 310 10 310 22L 310 52C 310 52 310 64 298 64L 22 64C 22 64 10 64 10 52L 10 22C 10 22 10 10 22 10"></path></g></g></g><g id="g-root-ro_v7zyl2fasaha-stroke" data-item-order="-16200" transform="translate(596.5, 338.5)"><g id="ro_v7zyl2fasaha-stroke" fill="none" stroke-linecap="butt" stroke-linejoin="miter" stroke-miterlimit="4" stroke="#ffffff" stroke-width="1"><g><path d="M 22 10L 298 10C 298 10 310 10 310 22L 310 52C 310 52 310 64 298 64L 22 64C 22 64 10 64 10 52L 10 22C 10 22 10 10 22 10"></path></g></g></g><g id="g-root-ro_zrj9aufkm7t3-stroke" data-item-order="-14904" transform="translate(146.5, 488.5)"><g id="ro_zrj9aufkm7t3-stroke" fill="none" stroke-linecap="butt" stroke-linejoin="miter" stroke-miterlimit="4" stroke="#ffffff" stroke-width="1"><g><path d="M 22 10L 274 10C 274 10 286 10 286 22L 286 52C 286 52 286 64 274 64L 22 64C 22 64 10 64 10 52L 10 22C 10 22 10 10 22 10"></path></g></g></g><g id="g-root-ro_4pg6aefb232i-stroke" data-item-order="-14904" transform="translate(596.5, 188.5)"><g id="ro_4pg6aefb232i-stroke" fill="none" stroke-linecap="butt" stroke-linejoin="miter" stroke-miterlimit="4" stroke="#ffffff" stroke-width="1"><g><path d="M 22 10L 274 10C 274 10 286 10 286 22L 286 52C 286 52 286 64 274 64L 22 64C 22 64 10 64 10 52L 10 22C 10 22 10 10 22 10"></path></g></g></g><g id="g-root-ro_hydqdyfl1o1z-stroke" data-item-order="-13608" transform="translate(338.5, 638.5)"><g id="ro_hydqdyfl1o1z-stroke" fill="none" stroke-linecap="butt" stroke-linejoin="miter" stroke-miterlimit="4" stroke="#ffffff" stroke-width="1"><g><path d="M 22 10L 250 10C 250 10 262 10 262 22L 262 52C 262 52 262 64 250 64L 22 64C 22 64 10 64 10 52L 10 22C 10 22 10 10 22 10"></path></g></g></g><g id="g-root-ro_958mhifl5y4h-stroke" data-item-order="-12960" transform="translate(98.5, 188.5)"><g id="ro_958mhifl5y4h-stroke" fill="none" stroke-linecap="butt" stroke-linejoin="miter" stroke-miterlimit="4" stroke="#ffffff" stroke-width="1"><g><path d="M 22 10L 238 10C 238 10 250 10 250 22L 250 52C 250 52 250 64 238 64L 22 64C 22 64 10 64 10 52L 10 22C 10 22 10 10 22 10"></path></g></g></g><g id="g-root-ro_1hbcpuefb7q4r-stroke" data-item-order="-12312" transform="translate(512.5, 488.5)"><g id="ro_1hbcpuefb7q4r-stroke" fill="none" stroke-linecap="butt" stroke-linejoin="miter" stroke-miterlimit="4" stroke="#ffffff" stroke-width="1"><g><path d="M 22 10L 226 10C 226 10 238 10 238 22L 238 52C 238 52 238 64 226 64L 22 64C 22 64 10 64 10 52L 10 22C 10 22 10 10 22 10"></path></g></g></g><g id="g-root-cu_1cu94gmfkp1xo-stroke" data-item-order="0" transform="translate(368.5, 92.5)"><g id="cu_1cu94gmfkp1xo-stroke" fill="none" stroke-linecap="butt" stroke-linejoin="miter" stroke-miterlimit="4" stroke="#666666" stroke-width="1" stroke-dasharray="2.5, 3.5"><g><path d="M 43.3 10L 43.3 22L 43.3 34L 26.7 34L 10 34"></path></g></g></g><g id="g-root-cu_18efmc6fkp2pz-stroke" data-item-order="0" transform="translate(368.5, 92.5)"><g id="cu_18efmc6fkp2pz-stroke" fill="none" stroke-linecap="butt" stroke-linejoin="miter" stroke-miterlimit="4" stroke="#666666" stroke-width="1" stroke-dasharray="2.5, 3.5"><g><path d="M 43.3 10L 43.3 17.5L 43.3 58C 43.299999 64.62742 37.927416 70.000003 31.299998 70.000002L 31.2 70L 10 70"></path></g></g></g><g id="g-root-cu_1qf2r4mfknoxz-stroke" data-item-order="0" transform="translate(537.8333129882812, 542.5)"><g id="cu_1qf2r4mfknoxz-stroke" fill="none" stroke-linecap="butt" stroke-linejoin="miter" stroke-miterlimit="4" stroke="#666666" stroke-width="1" stroke-dasharray="2.5, 3.5"><g><path d="M 10 10L 10 22L 10 34L 21.3 34L 32.7 34"></path></g></g></g><g id="g-root-cu_13ym47qfkp3ic-stroke" data-item-order="0" transform="translate(535.576904296875, 92.5)"><g id="cu_13ym47qfkp3ic-stroke" fill="none" stroke-linecap="butt" stroke-linejoin="miter" stroke-miterlimit="4" stroke="#666666" stroke-width="1" stroke-dasharray="2.5, 3.5"><g><path d="M 11.9 10L 11.9 13.8L 11.9 28C 11.915401 29.802452 11.848391 31.812764 11.7 33.999999L 11 40L 10.2 46C 10.05161 48.187235 9.984599 50.197547 10.000001 51.999999L 10 52.1L 10 58C 10.000002 64.627417 15.372585 70 22.000002 69.999999L 22.1 70L 28.5 70"></path></g></g></g><g id="g-root-cu_zrj9aufknmrk-stroke" data-item-order="0" transform="translate(621.5, 392.5)"><g id="cu_zrj9aufknmrk-stroke" fill="none" stroke-linecap="butt" stroke-linejoin="miter" stroke-miterlimit="4" stroke="#666666" stroke-width="1" stroke-dasharray="2.5, 3.5"><g><path d="M 10 10L 10 22L 10 34L 21.5 34L 33 34"></path></g></g></g><g id="g-root-cu_13ym47qfkp3i9-stroke" data-item-order="0" transform="translate(537.5, 92.5)"><g id="cu_13ym47qfkp3i9-stroke" fill="none" stroke-linecap="butt" stroke-linejoin="miter" stroke-miterlimit="4" stroke="#666666" stroke-width="1" stroke-dasharray="2.5, 3.5"><g><path d="M 10 10L 10 22L 10 34L 21.5 34L 33 34"></path></g></g></g><g id="g-root-tx_smartcon_v97ro6fl4h6p-stroke" data-item-order="0" transform="translate(566.5, 104.5)"></g><g id="g-root-tx_rapidexp_18k1syefl4irk-stroke" data-item-order="0" transform="translate(194.5, 140.5)"></g><g id="g-root-tx_privatek_mdkrfafl4hze-stroke" data-item-order="0" transform="translate(560.5, 140.5)"></g><g id="g-root-tx_disclosu_1hfot7afl4h73-stroke" data-item-order="0" transform="translate(122.5, 104.5)"></g><g id="g-root-cu_1lpw4pifkp14y-stroke" data-item-order="0" transform="translate(537.8333129882812, 542.5)"><g id="cu_1lpw4pifkp14y-stroke" fill="none" stroke-linecap="butt" stroke-linejoin="miter" stroke-miterlimit="4" stroke="#666666" stroke-width="1" stroke-dasharray="2.5, 3.5"><g><path d="M 10 10L 10 17.5L 10 58C 10.000002 64.627417 15.372585 70 22.000002 69.999999L 22.1 70L 32.7 70"></path></g></g></g><g id="g-root-cu_me7bo6fknojr-stroke" data-item-order="0" transform="translate(422.5, 413.5)"><g id="cu_me7bo6fknojr-stroke" fill="none" stroke-linecap="butt" stroke-linejoin="miter" stroke-miterlimit="4" stroke="#4f92ff" stroke-width="1" stroke-dasharray="2.5, 3.5"><g><path d="M 20 10L 20 16.4L 20 37C 20.004637 40.821418 20.612297 45.041272 21.800002 49.499999C 22.496871 52.157327 24.33266 56.217244 27.000002 61.000004C 29.667345 65.782763 31.503133 69.84268 32.200003 72.500004C 33.387709 76.958726 33.995368 81.17858 34.000004 84.999999L 34 85.1L 34 91.1C 33.999998 102.642755 24.642749 112.000004 13.099997 112.000003L 13 112L 10 112"></path></g></g></g><g id="g-root-cu_18kod7afknojv-stroke" data-item-order="0" transform="translate(338.5, 215.5)"><g id="cu_18kod7afknojv-stroke" fill="none" stroke-linecap="butt" stroke-linejoin="miter" stroke-miterlimit="4" stroke="#666666" stroke-width="1" stroke-dasharray="2.5, 3.5"><g><path d="M 40 92L 37.4 92L 37.3 92C 27.469333 92.000001 19.500001 84.03067 19.500001 74.200001L 19.5 74.1L 19.5 71.4C 19.496111 68.16838 19.968238 64.593702 20.900002 60.8C 21.469156 58.533999 22.913742 55.081084 25.000001 50.999999C 27.086259 46.918915 28.530846 43.466 29.100001 41.2C 30.031766 37.406297 30.503893 33.83162 30.500001 30.599999L 30.5 30.5L 30.5 27.8C 30.500001 17.969331 22.530669 9.999999 12.7 10L 12.6 10L 10 10"></path></g></g></g><g id="g-root-cu_7qa52fknojn-stroke" data-item-order="0" transform="translate(464.5, 413.5)"><g id="cu_7qa52fknojn-stroke" fill="none" stroke-linecap="butt" stroke-linejoin="miter" stroke-miterlimit="4" stroke="#666666" stroke-width="1" stroke-dasharray="2.5, 3.5"><g><path d="M 10 10L 10 122.5L 10 235"></path></g></g></g><g id="g-root-cu_145hc5yfknm6e-stroke" data-item-order="0" transform="translate(560.5, 215.5)"><g id="cu_145hc5yfknm6e-stroke" fill="none" stroke-linecap="butt" stroke-linejoin="miter" stroke-miterlimit="4" stroke="#666666" stroke-width="1" stroke-dasharray="2.5, 3.5"><g><path d="M 10 92L 12.6 92L 12.7 92C 22.530669 92.000005 30.500001 84.030673 30.500001 74.200004L 30.5 74.1L 30.5 71.4C 30.512003 68.293122 30.310801 64.839162 29.900001 61.100002C 29.618857 58.810645 28.953073 55.271478 28 51C 27.046927 46.728522 26.381143 43.189355 26.1 40.9C 25.6892 37.160841 25.487998 33.706881 25.5 30.600001L 25.5 30.5L 25.5 27.8C 25.500001 17.969332 33.469333 9.999999 43.300002 10L 43.4 10L 46 10"></path></g></g></g><g id="g-root-cu_hz0amufknm6a-stroke" data-item-order="0" transform="translate(488.5, 413.5)"><g id="cu_hz0amufknm6a-stroke" fill="none" stroke-linecap="butt" stroke-linejoin="miter" stroke-miterlimit="4" stroke="#4f92ff" stroke-width="1" stroke-dasharray="2.5, 3.5"><g><path d="M 18 10L 18 16.4L 18 37C 18.004094 40.692146 17.668338 44.788359 16.999999 49.2C 16.580734 51.861362 15.527671 56.003408 14.000001 61.000001C 12.472331 65.996593 11.419268 70.138639 11.000001 72.800001C 10.331659 77.211642 9.995904 81.307854 9.999998 85L 10 85.1L 10 91.1C 9.999999 102.642757 19.357248 112.000007 30.9 112.000007L 31 112L 34 112"></path></g></g></g><g id="g-root-tx_prcnexus_mbpc5yfl4iz1-stroke" data-item-order="0" transform="translate(566.5, 554.5)"></g><g id="g-root-tx_phishing_1lqiimufl4gzv-stroke" data-item-order="0" transform="translate(50.5, 254.5)"></g><g id="g-root-cu_1qd7bvafknp5a-stroke" data-item-order="0" transform="translate(284.5, 242.5)"><g id="cu_1qd7bvafknp5a-stroke" fill="none" stroke-linecap="butt" stroke-linejoin="miter" stroke-miterlimit="4" stroke="#666666" stroke-width="1" stroke-dasharray="2.5, 3.5"><g><path d="M 37.3 10L 37.3 22L 37.3 34L 23.7 34L 10 34"></path></g></g></g><g id="g-root-cu_1hi6spifknnk1-stroke" data-item-order="0" transform="translate(284.5, 242.5)"><g id="cu_1hi6spifknnk1-stroke" fill="none" stroke-linecap="butt" stroke-linejoin="miter" stroke-miterlimit="4" stroke="#666666" stroke-width="1" stroke-dasharray="2.5, 3.5"><g><path d="M 37.3 10L 37.3 17.5L 37.3 58C 37.300001 64.627415 31.927418 69.999998 25.300001 69.999998L 25.2 70L 10 70"></path></g></g></g><g id="g-root-tx_inadequa_1use9qufl4hsc-stroke" data-item-order="0" transform="translate(392.5, 740.5)"></g><g id="g-root-tx_multifac_1q9ge6ufl4he2-stroke" data-item-order="0" transform="translate(74.5, 440.5)"></g><g id="g-root-cu_146qac6fknp52-stroke" data-item-order="0" transform="translate(619.8333129882812, 242.5)"><g id="cu_146qac6fknp52-stroke" fill="none" stroke-linecap="butt" stroke-linejoin="miter" stroke-miterlimit="4" stroke="#666666" stroke-width="1" stroke-dasharray="2.5, 3.5"><g><path d="M 11.8 10L 11.8 13.8L 11.8 28C 11.76756 29.830744 11.667102 31.839908 11.500001 34L 10.9 40L 10.2 46C 10.059117 48.186406 9.992114 50.196471 10.000001 51.999999L 10 52.1L 10 58C 10.000002 64.627417 15.372585 70 22.000002 69.999999L 22.1 70L 34.7 70"></path></g></g></g><g id="g-root-cu_18mjsgmfknocr-stroke" data-item-order="0" transform="translate(621.5908813476562, 242.5)"><g id="cu_18mjsgmfknocr-stroke" fill="none" stroke-linecap="butt" stroke-linejoin="miter" stroke-miterlimit="4" stroke="#666666" stroke-width="1" stroke-dasharray="2.5, 3.5"><g><path d="M 10 10L 10 22L 10 34L 18.2 34L 26.4 34"></path></g></g></g><g id="g-root-tx_multiclo_v5gx5ifl4j60-stroke" data-item-order="0" transform="translate(650.5, 440.5)"></g><g id="g-root-tx_cyberesp_dcxyhifl4jd1-stroke" data-item-order="0" transform="translate(644.5, 254.5)"></g><g id="g-root-tx_codedeve_v47yzafl4gzw-stroke" data-item-order="0" transform="translate(98.5, 290.5)"></g><g id="g-root-cu_4njs9ifknnr9-stroke" data-item-order="0" transform="translate(428.5, 65.5)"><g id="cu_4njs9ifknnr9-stroke" fill="none" stroke-linecap="butt" stroke-linejoin="miter" stroke-miterlimit="4" stroke="#666666" stroke-width="1" stroke-dasharray="2.5, 3.5"><g><path d="M 14 184L 14 173.1L 14 121C 14.000948 116.974825 14.885449 112.55232 16.599998 107.999998C 17.610276 105.297298 20.238955 101.389802 23.999998 96.999995C 27.761041 92.610188 30.389721 88.702692 31.399998 85.999996C 33.114548 81.447676 33.999049 77.02517 33.999999 72.999998L 34 72.9L 34 30.9C 33.999998 19.357248 24.64275 10 13.1 10L 13 10L 10 10"></path></g></g></g><g id="g-root-tx_databrea_18i6dp2fl4jr8-stroke" data-item-order="0" transform="translate(218.5, 590.5)"></g><g id="g-root-tx_informat_23x7afl4hs6-stroke" data-item-order="0" transform="translate(650.5, 290.5)"></g><g id="g-root-cu_4njs9ifknnrc-stroke" data-item-order="0" transform="translate(488.5, 65.5)"><g id="cu_4njs9ifknnrc-stroke" fill="none" stroke-linecap="butt" stroke-linejoin="miter" stroke-miterlimit="4" stroke="#666666" stroke-width="1" stroke-dasharray="2.5, 3.5"><g><path d="M 18 184L 18 173.1L 18 121C 18.004097 117.307854 17.668342 113.211641 17.000003 108.8C 16.580731 106.138639 15.527669 101.996593 13.999998 97.000001C 12.472328 92.003409 11.419266 87.861362 10.999999 85.200001C 10.331663 80.788358 9.995907 76.692146 10.000002 73L 10 72.9L 10 30.9C 10 19.357248 19.357248 10 30.899998 10L 31 10L 34 10"></path></g></g></g><g id="g-root-tx_onpremis_1cw4gk6fl4jyn-stroke" data-item-order="0" transform="translate(650.5, 404.5)"></g><g id="g-root-tx_evadingd_1uqiuhifl4iry-stroke" data-item-order="0" transform="translate(566.5, 590.5)"></g><g id="g-root-cu_qns2xifkp1xi-stroke" data-item-order="0" transform="translate(362.5, 692.5)"><g id="cu_qns2xifkp1xi-stroke" fill="none" stroke-linecap="butt" stroke-linejoin="miter" stroke-miterlimit="4" stroke="#666666" stroke-width="1" stroke-dasharray="2.5, 3.5"><g><path d="M 10 10L 10 22L 10 34L 19 34L 28 34"></path></g></g></g><g id="g-root-cu_qu0tsmfknnrg-stroke" data-item-order="0" transform="translate(338.5, 355.5)"><g id="cu_qu0tsmfknnrg-stroke" fill="none" stroke-linecap="butt" stroke-linejoin="miter" stroke-miterlimit="4" stroke="#4f92ff" stroke-width="1" stroke-dasharray="2.5, 3.5"><g><path d="M 40 10L 38.1 10L 38 10C 35.841042 9.999207 33.464583 10.440549 30.999998 11.3C 29.537255 11.822997 27.412542 13.133236 25 14.999999C 22.587459 16.866762 20.462746 18.177002 19 18.699999C 16.535414 19.559451 14.158955 20.000793 12 20L 11.9 20L 10 20"></path></g></g></g><g id="g-root-tx_misconfi_92491yfl4jkb-stroke" data-item-order="0" transform="translate(386.5, 704.5)"></g><g id="g-root-tx_credenti_1cxzvtifl4iyz-stroke" data-item-order="0" transform="translate(206.5, 554.5)"></g><g id="g-root-cu_4pf7iufknnk2-stroke" data-item-order="0" transform="translate(368.5, 542.5)"><g id="cu_4pf7iufknnk2-stroke" fill="none" stroke-linecap="butt" stroke-linejoin="miter" stroke-miterlimit="4" stroke="#666666" stroke-width="1" stroke-dasharray="2.5, 3.5"><g><path d="M 37.7 10L 37.7 22L 37.7 34L 23.9 34L 10 34"></path></g></g></g><g id="g-root-cu_zpnu1ifknmyp-stroke" data-item-order="0" transform="translate(560.5, 355.5)"><g id="cu_zpnu1ifknmyp-stroke" fill="none" stroke-linecap="butt" stroke-linejoin="miter" stroke-miterlimit="4" stroke="#4f92ff" stroke-width="1" stroke-dasharray="2.5, 3.5"><g><path d="M 10 10L 12.3 10L 12.4 10C 14.917563 10.010589 17.68969 10.450073 20.6 11.3C 22.332147 11.803707 24.94627 13.110768 28 14.999999C 31.053731 16.889231 33.667853 18.196292 35.4 18.699999C 38.349196 19.561228 41.156186 20.000877 43.700002 20.000002L 43.8 20L 46 20"></path></g></g></g><g id="g-root-cu_1uuw992fkno5p-stroke" data-item-order="0" transform="translate(368.5, 542.5)"><g id="cu_1uuw992fkno5p-stroke" fill="none" stroke-linecap="butt" stroke-linejoin="miter" stroke-miterlimit="4" stroke="#666666" stroke-width="1" stroke-dasharray="2.5, 3.5"><g><path d="M 37.7 10L 37.7 17.5L 37.7 58C 37.700001 64.627415 32.327418 69.999998 25.700001 69.999998L 25.6 70L 10 70"></path></g></g></g><g id="g-root-tx_datathef_4j6dhyfl4j61-stroke" data-item-order="0" transform="translate(170.5, 404.5)"></g><g id="g-root-cu_mg2qxifknocl-stroke" data-item-order="0" transform="translate(284.5, 392.5)"><g id="cu_mg2qxifknocl-stroke" fill="none" stroke-linecap="butt" stroke-linejoin="miter" stroke-miterlimit="4" stroke="#666666" stroke-width="1" stroke-dasharray="2.5, 3.5"><g><path d="M 38.2 10L 38.2 22L 38.2 34L 24.1 34L 10 34"></path></g></g></g><g id="g-root-cu_i098t2fknp4w-stroke" data-item-order="0" transform="translate(284.5, 392.5)"><g id="cu_i098t2fknp4w-stroke" fill="none" stroke-linecap="butt" stroke-linejoin="miter" stroke-miterlimit="4" stroke="#666666" stroke-width="1" stroke-dasharray="2.5, 3.5"><g><path d="M 38.2 10L 38.2 17.5L 38.2 58C 38.199999 64.627415 32.827416 69.999998 26.199999 69.999998L 26.1 70L 10 70"></path></g></g></g><g id="g-root-cu_1hj9yfkp1xl-stroke" data-item-order="0" transform="translate(355.8333435058594, 692.5)"><g id="cu_1hj9yfkp1xl-stroke" fill="none" stroke-linecap="butt" stroke-linejoin="miter" stroke-miterlimit="4" stroke="#666666" stroke-width="1" stroke-dasharray="2.5, 3.5"><g><path d="M 16.7 10L 16.7 13.8L 16.7 28C 16.677125 29.898753 16.373592 31.989761 15.8 34.199999C 15.476965 35.507921 14.593205 37.558242 13.299999 40C 12.006793 42.441757 11.123034 44.492078 10.799999 45.799999C 10.253046 48.019635 9.983173 50.111145 10 51.999999L 10 52.1L 10 58C 10.000002 64.627417 15.372585 70 22.000002 69.999999L 22.1 70L 41 70"></path></g></g></g><g id="g-root-cu_qvw91yfknnkb-stroke" data-item-order="0" transform="translate(619.868408203125, 392.5)"><g id="cu_qvw91yfknnkb-stroke" fill="none" stroke-linecap="butt" stroke-linejoin="miter" stroke-miterlimit="4" stroke="#666666" stroke-width="1" stroke-dasharray="2.5, 3.5"><g><path d="M 11.6 10L 11.6 13.8L 11.6 28C 11.601333 29.808817 11.534342 31.818547 11.4 34L 10.8 40L 10.2 46C 10.065659 48.181453 9.998668 50.191183 10 52L 10 52.1L 10 58C 10.000002 64.627417 15.372585 70 22.000002 69.999999L 22.1 70L 34.6 70"></path></g></g></g><g id="g-root-tx_aidriven_18n66dyfl5wjz-stroke" data-item-order="1000000000" transform="translate(122.5, 203.5)"></g><g id="g-root-view_qwimzafl5vrc-stroke" data-item-order="1000000000" transform="translate(284.5, 200.5)"><g id="view_qwimzafl5vrc-stroke" fill="none" stroke-linecap="butt" stroke-linejoin="miter" stroke-miterlimit="4" stroke="#ffffff" stroke-width="1"><g><path d="M 25.407501 37.986252C 25.406811 38.725334 24.807837 39.32431 24.06875 39.325001L 12.015 39.324997C 11.275426 39.325001 10.67569 38.725822 10.675 37.986252L 10.675 34.637497C 10.675 30.569233 13.972982 27.27125 18.04125 27.27125C 22.109518 27.27125 25.407501 30.569233 25.407501 34.637501ZM 15.22875 31.824999C 15.22875 31.997589 15.368661 32.137497 15.54125 32.137497C 15.713839 32.137497 15.85375 31.997589 15.85375 31.824999C 15.85375 31.652411 15.713839 31.512499 15.54125 31.512499C 15.368661 31.512499 15.22875 31.652411 15.22875 31.824999M 20.22875 31.817501C 20.22875 31.990089 20.36866 32.130001 20.54125 32.130001C 20.71384 32.130001 20.85375 31.990089 20.85375 31.817501C 20.85375 31.644913 20.71384 31.505001 20.54125 31.505001C 20.36866 31.505001 20.22875 31.644913 20.22875 31.817501M 18.04125 27.27125L 18.04125 24.592499M 16.032501 22.58375C 16.032501 23.693153 16.931849 24.592501 18.04125 24.592501C 19.150652 24.592501 20.049999 23.693153 20.049999 22.58375C 20.049999 21.474348 19.150652 20.575001 18.04125 20.575001C 16.931849 20.575001 16.032501 21.474348 16.032501 22.58375M 10.675 35.96875L 25.407501 35.96875M 39.324997 16.1C 37.644436 19.423643 34.236866 21.519053 30.512501 21.519053C 26.788134 21.519053 23.380566 19.423643 21.700001 16.1C 23.379356 12.77295 26.788765 10.674762 30.515625 10.674762C 34.242485 10.674762 37.651894 12.77295 39.331249 16.1ZM 27.797501 16.1C 27.797501 17.598072 29.011929 18.8125 30.510002 18.8125C 32.008072 18.8125 33.2225 17.598072 33.2225 16.1C 33.2225 14.601928 32.008072 13.3875 30.510002 13.3875C 29.011929 13.3875 27.797501 14.601928 27.797501 16.1"></path></g></g></g><g id="g-root-tx_web3andc_mcbt92fkp2ip-stroke" data-item-order="1000000000" transform="translate(566.5, 53.5)"></g><g id="g-root-glob_i0a7kmfb24nd-stroke" data-item-order="1000000000" transform="translate(620.5, 200.5)"><g id="glob_i0a7kmfb24nd-stroke" fill="none" stroke-linecap="butt" stroke-linejoin="miter" stroke-miterlimit="4" stroke="#ffffff" stroke-width="1"><g><path d="M 14.92875 29.880001C 14.927067 35.14101 19.191488 39.406796 24.452499 39.406796C 29.713511 39.406796 33.977932 35.14101 33.97625 29.879999C 33.977932 24.618988 29.713511 20.353203 24.452499 20.353203C 19.191488 20.353203 14.927067 24.618988 14.92875 29.879999M 29.25 29.875C 29.25 36.858749 24.45875 39.39875 24.45875 39.39875C 24.45875 39.39875 19.661251 36.86375 19.661251 29.875C 19.661251 22.88625 24.452499 20.35 24.452499 20.35C 24.452499 20.35 29.25 22.895 29.25 29.875ZM 16.19875 25.299999L 32.706253 25.299999M 14.92875 29.880001L 33.97625 29.880001M 16.19875 34.459999L 32.706253 34.459999M 12.38875 25.78875C 10.97625 21.32 12.38875 17.745001 14.50625 15.95875C 15.2125 19.532499 16.625 20.42625 16.625 20.42625C 18.632599 19.391695 20.336039 17.851963 21.567499 15.95875C 22.408894 14.304489 22.657726 12.411773 22.272501 10.59625C 25.026814 10.732285 27.593704 12.031861 29.33375 14.171249C 32.157501 17.745001 32.157501 20.421249 32.157501 20.421249C 34.388721 19.746443 36.201546 18.109678 37.099998 15.95875C 39.224998 21.32 37.806252 25.78875 36.393749 27.575001M 24.452499 20.355L 24.452499 39.403751"></path></g></g></g><g id="g-root-tx_geopolit_146r93qfb25fk-stroke" data-item-order="1000000000" transform="translate(656.5, 203.5)"></g><g id="g-root-aler_959l92faxwxx-stroke" data-item-order="1000000000" transform="translate(440.5, 275.5)"><g id="aler_959l92faxwxx-stroke" fill="none" stroke-linecap="butt" stroke-linejoin="miter" stroke-miterlimit="4" stroke="#ffffff" stroke-width="1"><g><path d="M 45.641998 28.799999C 45.933575 28.799191 46.196854 28.974316 46.308807 29.243544C 46.420761 29.51277 46.359291 29.822939 46.153114 30.029114C 45.946938 30.235291 45.636768 30.296762 45.367542 30.184809C 45.098316 30.072853 44.923191 29.809576 44.924 29.518C 44.925098 29.121916 45.245914 28.801098 45.641998 28.799999M 45.641998 24.48L 45.641998 18.73M 56.784 29.622C 57.31081 30.676069 57.254265 31.927753 56.634567 32.930031C 56.014866 33.932304 54.920383 34.542236 53.742004 34.542L 37.542 34.542C 36.363621 34.542236 35.269138 33.932304 34.649437 32.930031C 34.029739 31.927753 33.973198 30.676069 34.5 29.622002L 42.599998 13.422C 43.175957 12.270192 44.353218 11.542631 45.641003 11.542631C 46.928787 11.542631 48.106049 12.270192 48.682003 13.422ZM 19.855999 56.458L 47.855999 56.458M 32.856003 52.458L 32.856003 56.458M 56.855999 40.293999L 56.855999 49.458C 56.856003 51.114857 55.512856 52.458 53.856003 52.458L 13.856 52.458C 12.199146 52.458 10.856 51.114857 10.856 49.458L 10.856 19.458C 10.856 17.801146 12.199146 16.458 13.856 16.458L 34.636002 16.458M 31.256001 36.676003C 31.25519 39.994659 28.564659 42.684532 25.246 42.684532C 21.927341 42.684532 19.236811 39.994659 19.236 36.676003L 19.236 33.676003C 19.236811 30.357342 21.927341 27.667467 25.246 27.667467C 28.564659 27.667467 31.25519 30.357342 31.256001 33.676003ZM 19.236 33.669998L 31.256001 33.669998M 14.732 36.676003L 19.236 36.676003M 17.234001 44.686001L 20.996 40.924M 16.232 26.158001L 20.312 30.24M 33.257999 44.686001L 29.496 40.924"></path></g></g></g><g id="g-root-tx_cybersec_1d30n9yfaxvd0-stroke" data-item-order="1000000000" transform="translate(392.5, 329.5)"></g><g id="g-root-tx_ransomwa_zpnqvqfl7ci2-stroke" data-item-order="1000000000" transform="translate(26.5, 353.5)"></g><g id="g-root-3_hz07h2fl7bpf-stroke" data-item-order="1000000000" transform="translate(284.5, 350.5)"><g id="3_hz07h2fl7bpf-stroke" fill="none" stroke-linecap="butt" stroke-linejoin="miter" stroke-miterlimit="4" stroke="#ffffff" stroke-width="1"><g><path d="M 15.9525 24.91625C 15.444811 24.404526 15.447608 23.578274 15.95875 23.07L 22.44375 16.63125C 22.953751 16.121838 23.779999 16.121838 24.289999 16.63125M 10.725 14.09C 10.725 15.532154 11.894096 16.70125 13.33625 16.70125C 14.778403 16.70125 15.9475 15.532154 15.9475 14.09C 15.9475 12.647846 14.778403 11.47875 13.33625 11.47875C 11.894096 11.47875 10.725 12.647846 10.725 14.09M 15.175 15.9425C 14.640007 16.471539 13.901318 16.741646 13.15125 16.682501L 17.8125 21.23L 20.591249 18.471251L 15.93 13.92375C 15.98374 14.674421 15.708144 15.41132 15.175 15.9425ZM 27.52125 23.903749L 21.055 18.01125L 17.348751 21.690001L 23.87875 28.6425M 33.375 26.721251L 30.72625 26.721251C 29.886473 26.719213 29.163641 27.313995 29.003941 28.138449C 28.84424 28.962904 29.292702 29.784569 30.0725 30.096249L 32.767502 31.172501C 33.547073 31.484097 33.995529 32.305408 33.83617 33.129684C 33.676811 33.953964 32.95454 34.548935 32.114998 34.547501L 29.463751 34.547501M 31.421249 26.721251L 31.421249 25.7425M 31.421249 35.532501L 31.421249 34.553749M 23.608749 30.6875C 23.608749 35.013271 27.11548 38.52 31.44125 38.52C 35.767021 38.52 39.27375 35.013271 39.27375 30.6875C 39.27375 26.361731 35.767021 22.855 31.44125 22.855C 27.11548 22.855 23.608749 26.361731 23.608749 30.6875M 34.532501 12.3525L 32.181252 17.453751L 35.55125 17.512501L 33.563751 21.04875M 12.2975 34.01125L 17.725 32.561249L 17.210001 35.892502L 21.032501 34.535M 19.145 19.907499L 23.328751 23.8925"></path></g></g></g><g id="g-root-lock_1heh046fasb9h-stroke" data-item-order="1000000000" transform="translate(620.5, 350.5)"><g id="lock_1heh046fasb9h-stroke" fill="none" stroke-linecap="butt" stroke-linejoin="miter" stroke-miterlimit="4" stroke="#ffffff" stroke-width="1"><g><path d="M 34.96875 29.0625L 34.96875 30.9375M 34.96875 34.6875L 34.96875 35.625C 34.96875 36.660534 34.129288 37.5 33.09375 37.5L 32.15625 37.5M 28.40625 37.5L 25.59375 37.5M 14.96875 22.5L 14.96875 20.3125M 14.96875 16.5625L 14.96875 15.625C 14.96875 14.589466 15.808216 13.75 16.84375 13.75L 17.78125 13.75M 21.53125 13.75L 24.34375 13.75M 12.18625 30C 12.186251 32.071068 13.865183 33.75 15.93625 33.75C 18.007318 33.75 19.686251 32.071068 19.686251 30C 19.686251 27.928932 18.007318 26.25 15.93625 26.25C 13.865183 26.25 12.186251 27.928932 12.186251 30M 21.21875 39.375C 20.434807 37.129143 18.316246 35.624737 15.9375 35.624737C 13.558754 35.624737 11.440193 37.129143 10.65625 39.375M 29.96875 15.625L 37.46875 15.625C 37.46875 15.625 39.34375 15.625 39.34375 17.5L 39.34375 23.125C 39.34375 23.125 39.34375 25 37.46875 25L 29.96875 25C 29.96875 25 28.09375 25 28.09375 23.125L 28.09375 17.5C 28.09375 17.5 28.09375 15.625 29.96875 15.625M 33.71875 10.625L 33.71875 10.625C 31.647682 10.625 29.96875 12.303932 29.96875 14.375L 29.96875 15.625L 37.46875 15.625L 37.46875 14.375C 37.46875 12.303932 35.789818 10.625 33.71875 10.625ZM 33.71875 19.875C 33.977634 19.875 34.1875 20.084866 34.1875 20.34375C 34.1875 20.602634 33.977634 20.8125 33.71875 20.8125C 33.459866 20.8125 33.25 20.602634 33.25 20.34375C 33.25 20.084866 33.459866 19.875 33.71875 19.875L 33.71875 19.875"></path></g></g></g><g id="g-root-tx_compromi_8znhsmfasbgk-stroke" data-item-order="1000000000" transform="translate(656.5, 353.5)"></g><g id="g-root-tx_infostea_93dadyfkm8st-stroke" data-item-order="1000000000" transform="translate(176.5, 503.5)"></g><g id="g-root-warn_1hi6spifkm8lq-stroke" data-item-order="1000000000" transform="translate(362.5, 500.5)"><g id="warn_1hi6spifkm8lq-stroke" fill="none" stroke-linecap="butt" stroke-linejoin="miter" stroke-miterlimit="4" stroke="#ffffff" stroke-width="1"><g><path d="M 31.91375 35.625C 32.086338 35.625 32.22625 35.764912 32.22625 35.9375C 32.22625 36.110088 32.086338 36.25 31.91375 36.25C 31.741161 36.25 31.60125 36.110088 31.60125 35.9375C 31.60125 35.764912 31.741161 35.625 31.91375 35.625M 31.91375 33.130001L 31.91375 29.379999M 32.96125 25.633751C 32.754772 25.247093 32.352085 25.005625 31.91375 25.005625C 31.475418 25.005625 31.072729 25.247093 30.866251 25.633751L 24.546249 37.67625C 24.356197 38.037266 24.371416 38.471909 24.58625 38.818748C 24.801733 39.168201 25.183203 39.380707 25.59375 39.380001L 38.233749 39.380001C 38.644676 39.380898 39.026608 39.1684 39.2425 38.818748C 39.456436 38.471531 39.471169 38.037163 39.28125 37.676247ZM 20.66375 39.375L 11.91375 39.375C 11.223394 39.375 10.66375 38.815353 10.66375 38.125L 10.66375 11.875C 10.66375 11.184644 11.223394 10.625 11.91375 10.625L 28.530001 10.625C 28.862755 10.627385 29.180824 10.762351 29.41375 11L 34.047501 15.625C 34.281937 15.859366 34.413677 16.177258 34.41375 16.508749L 34.41375 20.625M 14.41375 16.880001L 14.41375 21.879999M 25.66375 16.880001L 25.66375 21.879999M 21.91375 25.629999L 21.91375 30.629999M 29.41375 16.880001L 29.41375 21.879999M 20.03875 16.875C 21.074284 16.875 21.91375 17.714466 21.91375 18.75L 21.91375 20C 21.91375 21.035534 21.074284 21.875 20.03875 21.875C 19.003216 21.875 18.16375 21.035534 18.16375 20L 18.16375 18.75C 18.16375 17.714466 19.003216 16.875 20.03875 16.875ZM 16.28875 25.625C 17.324284 25.625 18.16375 26.464466 18.16375 27.5L 18.16375 28.75C 18.16375 29.785534 17.324284 30.625 16.28875 30.625C 15.253216 30.625 14.41375 29.785534 14.41375 28.75L 14.41375 27.5C 14.41375 26.464466 15.253216 25.625 16.28875 25.625Z"></path></g></g></g><g id="g-root-lapt_1lvibbqfkp34a-stroke" data-item-order="1000000000" transform="translate(530.5, 50.5)"><g id="lapt_1lvibbqfkp34a-stroke" fill="none" stroke-linecap="butt" stroke-linejoin="miter" stroke-miterlimit="4" stroke="#ffffff" stroke-width="1"><g><path d="M 24.125 23.112499C 25.462488 25.441381 27.94313 26.877365 30.62875 26.877365C 33.314369 26.877365 35.795013 25.441381 37.1325 23.112501M 39.375 20.625C 39.375 22.005713 38.255714 23.125 36.875 23.125L 33.75 23.125C 33.356556 23.125 32.986069 22.939756 32.75 22.625L 31.625 21.125C 31.388931 20.810244 31.018446 20.625 30.625 20.625C 30.231554 20.625 29.861067 20.810244 29.625 21.125L 28.5 22.625C 28.263933 22.939756 27.893446 23.125 27.5 23.125L 24.375 23.125C 22.994287 23.125 21.875 22.005713 21.875 20.625L 21.875 16.875C 21.875 15.494288 22.994287 14.375 24.375 14.375L 36.875 14.375C 38.255714 14.375 39.375 15.494288 39.375 16.875ZM 26.875 16.875L 34.375 16.875M 37.125 14.3875C 35.787514 12.058619 33.306873 10.622635 30.62125 10.622635C 27.935629 10.622635 25.454988 12.058619 24.1175 14.3875M 10.625 36.875C 10.610882 37.542271 10.869739 38.18639 11.341675 38.658329C 11.81361 39.130264 12.457731 39.389118 13.125 39.375004L 21.875 39.375C 22.542269 39.389118 23.18639 39.130264 23.658327 38.658329C 24.130262 38.18639 24.389118 37.542271 24.375002 36.875004ZM 13.125 29.375L 21.875 29.375C 22.565357 29.375 23.125 29.934643 23.125 30.625L 23.125 36.875L 23.125 36.875L 11.875 36.875L 11.875 36.875L 11.875 30.625C 11.875 29.934643 12.434644 29.375 13.125 29.375ZM 14.375 26.875L 14.375 25.625C 14.375 24.934643 14.934644 24.375 15.625 24.375C 16.315355 24.375 16.875 23.815357 16.875 23.125C 16.875 22.434643 16.315355 21.875 15.625 21.875L 11.875 21.875C 11.184644 21.875 10.625 21.315357 10.625 20.625C 10.625 19.934645 11.184644 19.375 11.875 19.375L 19.375 19.375"></path></g></g></g><g id="g-root-bug_8wj7iufb7qbu-stroke" data-item-order="1000000000" transform="translate(530.5, 500.5)"><g id="bug_8wj7iufb7qbu-stroke" fill="none" stroke-linecap="butt" stroke-linejoin="miter" stroke-miterlimit="4" stroke="#ffffff" stroke-width="1"><g><path d="M 10.63 15.62625C 10.63 18.387674 15.946619 20.626251 22.504999 20.626251C 29.063381 20.626251 34.380001 18.387674 34.380001 15.62625C 34.380001 12.864826 29.063381 10.62625 22.504999 10.62625C 15.946619 10.62625 10.63 12.864826 10.63 15.62625ZM 24.375 25.5625C 23.76375 25.60375 23.137501 25.626251 22.5 25.626251C 15.9425 25.626251 10.625 23.38875 10.625 20.626251M 22.5 31.25C 15.9475 31.25 10.625 29.01375 10.625 26.25M 22.5 36.875C 15.9425 36.875 10.625 34.637497 10.625 31.875L 10.625 15.625M 34.380001 15.62625L 34.380001 24.376251M 36.875 35.625C 36.875 37.696068 35.196068 39.375 33.125 39.375C 31.053932 39.375 29.375002 37.696068 29.375002 35.625L 29.375 31.875C 29.375002 29.803932 31.053932 28.125002 33.125 28.125002C 35.196068 28.125002 36.875 29.803932 36.875 31.875ZM 36.37875 30.011251L 39.375 28.126251M 29.87125 30.011251L 26.875 28.126251M 36.37875 37.490002L 39.375 39.376251M 29.87125 37.490002L 26.875 39.376251M 36.875 34.376251L 39.375 34.376251M 29.375 34.376251L 26.875 34.376251M 29.375 31.876249L 36.875 31.876249"></path></g></g></g><g id="g-root-tx_customma_v3091yfb7r41-stroke" data-item-order="1000000000" transform="translate(566.5, 503.5)"></g><g id="g-root-tx_exploita_qs5ejafknoqw-stroke" data-item-order="1000000000" transform="translate(98.5, 53.5)"></g><g id="g-root-comp_5uuvqfknoqx-stroke" data-item-order="1000000000" transform="translate(368.5, 50.5)"><g id="comp_5uuvqfknoqx-stroke" fill="none" stroke-linecap="butt" stroke-linejoin="miter" stroke-miterlimit="4" stroke="#ffffff" stroke-width="1"><g><path d="M 10.625 30.625L 36.875 30.625M 36.875 28.125L 36.875 33.125C 36.875 33.815353 36.315353 34.375 35.625 34.375L 11.875 34.375C 11.184644 34.375 10.625 33.815353 10.625 33.125L 10.625 16.875C 10.625 16.184645 11.184644 15.625 11.875 15.625L 29.375 15.625M 20 39.375C 21.132277 37.945297 21.788008 36.196686 21.875 34.375M 27.5 39.375C 26.367723 37.945297 25.711992 36.196686 25.625 34.375M 18.125 39.375L 29.375 39.375M 34.375 16.875C 34.375 18.255713 35.494286 19.375 36.875 19.375C 38.255714 19.375 39.375 18.255713 39.375 16.875C 39.375 15.494288 38.255714 14.375 36.875 14.375C 35.494286 14.375 34.375 15.494288 34.375 16.875M 36.875 10.625L 36.875 14.375M 31.158751 20.75C 30.409794 21.861073 30.452518 23.325962 31.264956 24.391497C 32.077393 25.457029 33.478706 25.886036 34.748413 25.457939C 36.018116 25.029842 36.873596 23.83993 36.875 22.5L 36.875 19.375M 21.5625 20.9375C 21.562502 22.145622 22.541878 23.125 23.750002 23.125C 24.958122 23.125 25.937502 22.145622 25.937502 20.9375C 25.937502 19.729378 24.958122 18.75 23.750002 18.75C 22.541878 18.75 21.562502 19.729378 21.562502 20.9375M 28.125 27.5C 27.615034 25.500114 25.813883 24.100616 23.75 24.100616C 21.686117 24.100616 19.884966 25.500114 19.375 27.5"></path></g></g></g><g id="g-root-plur_v97ro6fl1pmu-stroke" data-item-order="1000000000" transform="translate(350.5, 650.5)"><g id="plur_v97ro6fl1pmu-stroke" fill="none" stroke-linecap="butt" stroke-linejoin="miter" stroke-miterlimit="4" stroke="#ffffff" stroke-width="1"><g><path d="M 24.706251 39.375L 24.706251 22.51125M 20.95875 26.8825L 20.95875 37.501251L 17.83625 37.501251L 17.83625 39.375M 13.46375 39.375L 13.46375 33.75375L 17.21125 33.75375L 17.21125 28.75625M 28.453749 26.8825L 28.453749 37.501251L 31.577499 37.501251L 31.577499 39.375M 35.950001 39.375L 35.950001 33.75375L 32.202499 33.75375L 32.202499 28.75625M 34.375 27.125C 36.988712 26.458843 38.800488 24.081795 38.75 21.385C 38.751179 19.762434 38.091461 18.209373 36.922871 17.083708C 35.754284 15.958043 34.177635 15.356878 32.556248 15.41875C 30.92778 11.962387 27.162411 10.050786 23.411076 10.775928C 19.659737 11.501071 16.87804 14.678235 16.655001 18.4925C 15.33392 18.214674 13.957981 18.547033 12.909385 19.397261C 11.860787 20.247488 11.251219 21.525023 11.25 22.875C 11.132792 24.958664 12.587543 26.802704 14.64125 27.17375"></path></g></g></g><g id="g-root-tx_cloudspe_18koa1ifl1o1x-stroke" data-item-order="1000000000" transform="translate(386.5, 653.5)"></g></g></g></svg>